<svg version="1.1" id="Layer_1" xmlns="http://www.w3.org/2000/svg" xmlns:xlink="http://www.w3.org/1999/xlink" x="0px" y="0px"
	 width="100%" viewBox="0 0 848 1264" enable-background="new 0 0 848 1264" xml:space="preserve">
<path fill="#010101" opacity="1.000000" stroke="none" 
	d="
M1.000005,406.000000 
	C1.000000,328.309998 1.000000,250.620010 1.375834,172.309601 
	C5.204491,142.725037 11.897368,114.536255 21.887503,87.124878 
	C33.018745,56.582466 48.111809,28.077419 66.000000,1.000000 
	C314.689972,1.000000 563.379944,1.000000 812.614197,1.335377 
	C813.450562,2.073857 813.755493,2.468331 814.033020,2.881265 
	C827.670959,23.173040 839.046204,44.698975 849.000000,67.000000 
	C849.000000,172.356659 849.000000,277.713318 848.674316,383.674988 
	C814.256470,459.482269 760.587158,517.521851 691.728821,563.449097 
	C691.616211,553.913635 689.012024,546.386719 679.437195,544.643738 
	C668.412231,542.636597 662.028015,549.521729 656.896851,559.085266 
	C655.173767,552.636047 652.985291,547.627563 646.721191,545.783264 
	C637.606445,543.099670 627.668091,548.761963 624.253784,559.092163 
	C623.024536,562.811523 622.492798,566.761414 621.649963,570.573486 
	C619.533508,569.382812 617.519104,567.845703 615.245422,567.042297 
	C606.708069,564.025696 596.876526,569.449524 593.817505,579.890930 
	C592.085449,585.802979 592.239990,592.325073 591.954651,598.591064 
	C591.442444,609.836975 587.553894,618.903442 576.999695,624.288330 
	C569.013245,628.363159 561.079895,632.550842 553.232727,636.887024 
	C545.390198,641.220581 538.888794,647.042603 534.044250,654.708313 
	C533.100098,656.202332 531.222351,657.454163 529.507751,658.057800 
	C517.249268,662.373169 504.921478,666.491821 492.138550,670.835205 
	C508.700867,674.468018 524.736877,678.424805 537.889282,689.952026 
	C537.889282,688.350037 538.049744,687.324768 537.865662,686.365601 
	C533.938293,665.905212 543.617981,651.332825 561.387024,642.765320 
	C567.069702,640.025452 572.625671,637.023010 578.303284,634.272156 
	C593.613220,626.854614 601.278442,614.826965 600.978027,597.678772 
	C600.894165,592.887146 601.154541,587.983032 602.124817,583.310791 
	C603.011230,579.042786 605.870544,575.515320 610.747375,575.729980 
	C615.984619,575.960510 615.428101,580.719055 615.786255,584.107971 
	C617.037048,595.943420 621.134216,607.678223 617.031372,619.825562 
	C619.634644,616.499817 621.491516,612.995789 623.742798,609.766724 
	C628.975098,602.262024 631.302429,594.094788 631.060486,584.897400 
	C630.881958,578.112122 631.070435,571.168335 632.390381,564.553589 
	C633.078674,561.104004 635.987000,557.431274 638.926453,555.257080 
	C643.068481,552.193420 646.588196,554.191345 647.338623,559.408447 
	C648.072205,564.509094 648.561340,569.663330 648.812927,574.810913 
	C649.313049,585.044128 651.888184,595.327942 648.180786,605.733154 
	C647.871277,606.498840 647.716553,607.033142 647.347778,607.781311 
	C647.191650,608.279907 647.249695,608.564697 647.307739,608.849487 
	C647.565369,608.593811 647.823059,608.338074 648.374634,608.000000 
	C648.854980,607.347412 649.041260,606.777283 649.513306,606.009155 
	C655.937134,596.266113 658.471619,585.422363 661.187683,574.617859 
	C662.156067,570.765503 663.391663,566.910950 665.087463,563.333252 
	C666.402527,560.558655 668.136169,557.435486 670.583130,555.904114 
	C672.853210,554.483398 676.764221,553.942078 679.096497,554.965271 
	C680.697083,555.667542 681.598816,559.753174 681.455078,562.248169 
	C681.199036,566.692871 679.914734,571.078247 679.060303,575.488464 
	C675.749207,592.579224 673.832275,610.106812 662.255127,624.416687 
	C658.713623,628.794128 655.246094,633.425720 652.795288,638.453064 
	C646.650208,651.058594 636.693909,659.302734 624.393799,665.214050 
	C624.095215,665.357544 623.834106,665.576965 623.542542,665.737366 
	C612.914856,671.581360 602.277100,677.407288 591.662842,683.275574 
	C589.089233,684.698486 586.872253,686.177490 588.335144,689.911621 
	C592.270508,699.956604 595.870850,710.132629 599.788269,720.184937 
	C608.006653,741.273621 620.438049,760.038269 633.184326,778.485168 
	C647.499207,799.202271 649.888062,821.362854 644.137695,845.162659 
	C638.777405,867.348083 612.344299,889.079346 584.312744,864.880249 
	C572.689819,854.846436 563.157715,843.224121 555.925720,829.748657 
	C551.735352,821.940674 548.007141,813.884644 544.097839,805.994568 
	C540.962769,813.870667 537.566345,821.748840 534.684875,829.811096 
	C531.227722,839.484192 527.142395,849.109924 525.227539,859.119385 
	C521.450012,878.865295 528.606567,896.264587 538.673035,912.979858 
	C547.235229,927.197327 555.547729,941.663940 562.630127,956.653625 
	C578.083801,989.360535 587.557739,1023.925171 591.804688,1059.862915 
	C593.799072,1076.739258 595.379883,1093.556030 591.213806,1110.494995 
	C583.859558,1140.396118 549.330872,1153.271484 524.535583,1134.929443 
	C520.127136,1131.668335 516.021973,1127.993896 511.814148,1124.465576 
	C494.430603,1109.889893 479.071289,1093.716187 470.404510,1072.214478 
	C469.251740,1069.354492 467.678833,1066.663696 466.300476,1063.894531 
	C465.822174,1064.096069 465.343842,1064.297729 464.865509,1064.499268 
	C467.657440,1073.612427 469.739166,1083.026733 473.441162,1091.753784 
	C477.137054,1100.466553 482.455536,1108.490967 487.247803,1117.151611 
	C475.915833,1120.835938 464.379242,1122.611694 452.559082,1119.505859 
	C444.207947,1117.311768 437.875519,1112.536255 437.305908,1103.262817 
	C436.796692,1094.973022 436.095734,1086.408569 437.563904,1078.344727 
	C440.425720,1062.626587 439.459290,1047.336304 436.526398,1031.823730 
	C434.446381,1020.822388 436.420227,1010.439453 445.441132,1000.731079 
	C464.986359,1030.947510 484.116028,1060.521484 503.024872,1089.754028 
	C502.667480,1088.567749 502.335449,1086.780029 501.611084,1085.168823 
	C495.622467,1071.847900 490.382019,1058.105225 483.331451,1045.366943 
	C472.480469,1025.762451 460.265472,1006.916992 448.868256,987.608337 
	C445.791565,982.395935 441.394440,976.671997 441.400299,971.186951 
	C441.414520,957.803101 442.912903,944.372437 447.637177,931.464478 
	C450.411438,923.884399 452.497101,915.848694 453.457306,907.845703 
	C456.587891,881.752808 440.242889,858.151917 414.976685,851.049072 
	C396.740173,845.922485 379.308441,848.791382 362.560181,856.559265 
	C340.531403,866.776306 325.947266,884.363892 315.646484,906.010864 
	C317.314209,905.147278 318.791351,904.033325 320.040375,902.704895 
	C323.233246,899.308960 326.212708,895.707947 329.475128,892.382751 
	C346.423157,875.108887 365.883484,862.512756 390.532227,859.376709 
	C410.778717,856.800720 435.512604,866.335327 441.466003,890.494934 
	C443.803711,899.981323 443.102692,909.283447 440.430573,918.578491 
	C437.589569,928.460999 433.430542,938.245300 432.452148,948.325317 
	C430.275024,970.755981 425.912354,992.731812 421.629181,1014.776062 
	C416.947510,1038.871216 415.251495,1062.930054 423.623871,1086.752075 
	C424.853424,1090.250488 425.344604,1094.387939 424.846497,1098.048462 
	C422.669556,1114.047241 425.530396,1129.527344 428.356445,1145.142212 
	C430.513062,1157.058350 432.656219,1169.164917 432.804169,1181.211304 
	C433.010254,1197.992554 424.628235,1205.781860 407.894562,1206.525024 
	C402.429749,1206.767700 396.908630,1206.372925 391.445374,1205.899536 
	C376.359863,1204.591919 361.272919,1203.216064 346.882385,1197.945435 
	C331.426453,1192.284668 327.105133,1182.442505 334.037506,1167.419556 
	C340.090515,1154.302246 346.803589,1141.489624 352.862762,1128.375000 
	C356.810852,1119.829834 361.143188,1111.367798 360.702301,1101.389526 
	C360.433899,1095.315552 361.147949,1089.196655 361.450653,1083.099365 
	C361.680145,1078.476685 362.888245,1073.677612 362.041534,1069.267944 
	C359.286346,1054.918823 356.374176,1040.548828 352.452148,1026.485352 
	C344.423004,997.694824 341.330902,969.018860 351.174774,940.032776 
	C353.380859,933.536804 355.305389,926.945190 357.359558,920.397644 
	C356.966064,920.212219 356.572571,920.026855 356.179077,919.841431 
	C353.595551,923.443970 350.734253,926.881042 348.473663,930.675964 
	C333.988098,954.993286 332.071259,981.130310 337.515076,1008.294922 
	C338.203247,1011.729065 338.672943,1015.206909 339.390015,1019.549622 
	C320.191956,1011.665466 305.470428,1000.256042 297.252960,982.369629 
	C287.707703,961.593262 288.550079,940.013977 295.456757,918.551941 
	C300.259247,903.628479 308.648193,890.626038 318.024963,878.276306 
	C325.815369,868.015808 328.928314,856.568298 325.080017,844.463806 
	C320.106812,828.821045 313.703156,813.633057 307.503479,797.154175 
	C306.042694,799.936951 305.196381,801.508789 304.386322,803.099121 
	C300.321106,811.080627 296.610596,819.266357 292.136230,827.011108 
	C281.966705,844.613892 269.993469,860.693848 251.813034,871.000977 
	C245.924911,874.339111 239.695541,876.782104 232.798157,875.644958 
	C219.416412,873.438904 209.158218,866.352966 203.642075,853.962524 
	C197.063095,839.184814 195.481903,823.544739 198.620361,807.568665 
	C201.288544,793.986633 208.743790,782.634033 216.402786,771.607788 
	C233.649094,746.779175 246.030334,719.743103 254.989975,690.987732 
	C256.110535,687.391357 255.193481,685.559143 252.090149,683.864929 
	C242.763184,678.772949 233.691376,673.196594 224.245575,668.343323 
	C209.838882,660.941284 196.455994,652.628723 189.538361,636.977356 
	C188.613388,634.884583 187.046066,633.042847 185.612930,631.212708 
	C176.127960,619.099976 169.482208,605.815552 167.393890,590.329102 
	C166.151947,581.119263 163.702820,572.071106 162.492462,562.858826 
	C162.146820,560.228088 163.536896,555.682556 165.383179,554.873901 
	C167.736465,553.843140 171.582016,555.236084 174.356140,556.513794 
	C176.055054,557.296326 177.282257,559.674866 178.135437,561.596680 
	C179.678452,565.072327 180.949081,568.692932 182.040344,572.340698 
	C185.761108,584.778259 187.799683,597.842529 196.312637,609.229797 
	C195.456436,604.705505 193.951126,600.794495 194.130981,596.962524 
	C194.731461,584.168213 195.871445,571.396851 196.944336,558.628418 
	C197.301102,554.382507 200.104080,553.415466 203.746277,554.623413 
	C208.961746,556.353027 211.400909,560.597412 211.914261,565.603821 
	C212.659515,572.872009 212.563736,580.222473 213.124954,587.514954 
	C213.453033,591.777893 213.509766,596.375244 215.191498,600.153198 
	C218.386490,607.330566 222.660858,614.027466 226.486923,620.923889 
	C226.458130,615.996338 225.072754,611.239563 225.386887,606.597839 
	C225.970108,597.979736 227.457535,589.415649 228.739441,580.854675 
	C229.537308,575.526123 233.341019,573.822510 237.569351,577.126648 
	C239.524582,578.654541 241.390594,581.135254 241.903763,583.487915 
	C242.848068,587.817139 243.161804,592.382385 243.035599,596.829285 
	C242.530731,614.619019 250.518753,626.943665 266.356812,634.641602 
	C273.968781,638.341370 281.686310,641.960388 288.836639,646.444275 
	C302.825958,655.216980 309.489594,667.725647 306.275604,684.571960 
	C305.808197,687.021912 305.510376,689.504272 305.014832,692.753479 
	C321.286560,680.485779 339.527161,675.105164 357.611938,670.999817 
	C343.162659,665.928589 328.572998,660.922363 314.092682,655.617676 
	C311.567413,654.692627 309.361816,652.675232 307.254333,650.874634 
	C302.722046,647.002502 298.798370,642.221985 293.812439,639.120544 
	C285.235321,633.785400 276.092041,629.341370 267.082855,624.725464 
	C259.237091,620.705688 254.508026,614.287354 253.068146,605.845642 
	C252.070023,599.993835 252.346619,593.927551 252.007141,587.959778 
	C251.353012,576.460938 244.500031,567.349426 234.816833,566.677917 
	C230.631332,566.387634 226.268173,568.659424 222.067383,569.746216 
	C220.289169,555.292358 214.250748,546.501953 203.776169,545.349915 
	C200.329468,544.970886 195.984680,546.227356 193.186066,548.282349 
	C190.256454,550.433472 188.692123,554.443909 186.468765,557.733765 
	C182.245697,549.454285 176.047760,542.946411 165.676300,544.517212 
	C155.152039,546.111145 152.166763,554.298706 151.961578,564.220337 
	C150.452225,563.255127 149.485611,562.646545 148.528427,562.023499 
	C124.333359,546.275208 101.675392,528.583984 80.707619,508.716797 
	C51.510029,481.051758 26.669510,449.957611 6.521562,415.128845 
	C4.741132,412.051117 2.843309,409.041321 1.000005,406.000000 
M370.215302,713.795959 
	C370.670410,749.264282 379.956329,792.447632 398.459076,806.292297 
	C397.583496,804.589783 397.097900,803.639221 396.606781,802.691589 
	C393.782379,797.242310 390.136047,792.058838 388.274384,786.298584 
	C380.485718,762.199585 376.733765,737.414673 378.079681,712.056946 
	C378.842712,697.681763 384.244537,685.013428 395.570160,675.814087 
	C410.822174,663.425476 428.207825,660.560242 446.694366,667.186401 
	C465.734436,674.010864 475.024414,688.758423 478.041260,708.064575 
	C480.392792,723.113037 478.137360,737.980103 475.791138,752.775452 
	C472.627563,772.725647 468.886749,792.550903 455.463196,809.004333 
	C456.985992,808.465027 458.231537,807.723877 459.023346,806.648560 
	C463.354797,800.766235 468.815796,795.331360 471.614014,788.772339 
	C482.525421,763.195923 487.714203,736.330566 485.355499,708.496277 
	C484.655914,700.241272 482.611572,691.563599 478.938385,684.199463 
	C468.627502,663.527710 441.515594,651.654968 417.628540,656.497437 
	C395.407623,661.002197 379.191284,672.696838 373.270630,695.683044 
	C371.825439,701.293762 371.276306,707.135315 370.215302,713.795959 
z"/>

<path fill="#FDFDFD" opacity="1.000000" stroke="none" 
	d="
M65.531342,1.000000 
	C48.111809,28.077419 33.018745,56.582466 21.887503,87.124878 
	C11.897368,114.536255 5.204491,142.725037 1.375834,171.844574 
	C1.000000,115.105835 1.000000,58.211674 1.000000,1.000000 
	C22.353178,1.000000 43.707932,1.000000 65.531342,1.000000 
z"/>
<path fill="#FCFCFC" opacity="1.000000" stroke="none" 
	d="
M849.000000,66.531342 
	C839.046204,44.698975 827.670959,23.173040 814.033020,2.881265 
	C813.755493,2.468331 813.450562,2.073857 813.079224,1.335377 
	C824.948303,1.000000 836.896606,1.000000 849.000000,1.000000 
	C849.000000,22.687340 849.000000,44.375011 849.000000,66.531342 
z"/>
<path fill="#F3F4F3" opacity="1.000000" stroke="none" 
	d="
M370.265259,713.333374 
	C371.276306,707.135315 371.825439,701.293762 373.270630,695.683044 
	C379.191284,672.696838 395.407623,661.002197 417.628540,656.497437 
	C441.515594,651.654968 468.627502,663.527710 478.938385,684.199463 
	C482.611572,691.563599 484.655914,700.241272 485.355499,708.496277 
	C487.714203,736.330566 482.525421,763.195923 471.614014,788.772339 
	C468.815796,795.331360 463.354797,800.766235 459.023346,806.648560 
	C458.231537,807.723877 456.985992,808.465027 455.463196,809.004333 
	C468.886749,792.550903 472.627563,772.725647 475.791138,752.775452 
	C478.137360,737.980103 480.392792,723.113037 478.041260,708.064575 
	C475.024414,688.758423 465.734436,674.010864 446.694366,667.186401 
	C428.207825,660.560242 410.822174,663.425476 395.570160,675.814087 
	C384.244537,685.013428 378.842712,697.681763 378.079681,712.056946 
	C376.733765,737.414673 380.485718,762.199585 388.274384,786.298584 
	C390.136047,792.058838 393.782379,797.242310 396.606781,802.691589 
	C397.097900,803.639221 397.583496,804.589783 398.459076,806.292297 
	C379.956329,792.447632 370.670410,749.264282 370.265259,713.333374 
z"/>
<path fill="#FEFEFE" opacity="1.000000" stroke="none" 
	d="
M647.561890,607.567505 
	C647.716553,607.033142 647.871277,606.498840 648.180786,605.733154 
	C648.489197,605.613159 648.642761,605.724487 649.011963,606.021484 
	C649.041260,606.777283 648.854980,607.347412 648.246094,607.870117 
	C647.823547,607.822693 647.561890,607.567505 647.561890,607.567505 
z"/>
<path fill="#FEFEFE" opacity="1.000000" stroke="none" 
	d="
M647.952148,607.952515 
	C647.823059,608.338074 647.565369,608.593811 647.307739,608.849487 
	C647.249695,608.564697 647.191650,608.279907 647.347778,607.781311 
	C647.561890,607.567505 647.823547,607.822693 647.952148,607.952515 
z"/>
</svg>