<svg xmlns="http://www.w3.org/2000/svg" viewBox="0 0 24 24">
<rect width="24" height="24" rx="4" fill="#000"/>
<path d="M14.9 5.2c.55 1.5 1.55 2.45 3.1 2.9v2.6c-1.17-.05-2.24-.38-3.1-.94v4.18c0 3.01-2.1 5.06-5 5.06-2.55 0-4.5-1.83-4.5-4.28 0-2.73 2.23-4.62 5.17-4.43v2.65c-1.45-.2-2.53.58-2.53 1.76 0 .97.78 1.69 1.84 1.69 1.27 0 2.11-.93 2.11-2.38V5.2h2.91Z" fill="#25F4EE" transform="translate(-.45,.15)"/>
<path d="M14.9 5.2c.55 1.5 1.55 2.45 3.1 2.9v2.6c-1.17-.05-2.24-.38-3.1-.94v4.18c0 3.01-2.1 5.06-5 5.06-2.55 0-4.5-1.83-4.5-4.28 0-2.73 2.23-4.62 5.17-4.43v2.65c-1.45-.2-2.53.58-2.53 1.76 0 .97.78 1.69 1.84 1.69 1.27 0 2.11-.93 2.11-2.38V5.2h2.91Z" fill="#FE2C55" transform="translate(.45,-.15)"/>
<path d="M14.9 5.2c.55 1.5 1.55 2.45 3.1 2.9v2.6c-1.17-.05-2.24-.38-3.1-.94v4.18c0 3.01-2.1 5.06-5 5.06-2.55 0-4.5-1.83-4.5-4.28 0-2.73 2.23-4.62 5.17-4.43v2.65c-1.45-.2-2.53.58-2.53 1.76 0 .97.78 1.69 1.84 1.69 1.27 0 2.11-.93 2.11-2.38V5.2h2.91Z" fill="#fff"/>
</svg>